<?xml version="1.0" standalone="no"?>
<!DOCTYPE svg PUBLIC "-//W3C//DTD SVG 20010904//EN"
 "http://www.w3.org/TR/2001/REC-SVG-20010904/DTD/svg10.dtd">
<svg version="1.0" xmlns="http://www.w3.org/2000/svg"
 width="700.000000pt" height="700.000000pt" viewBox="0 0 700.000000 700.000000"
 preserveAspectRatio="xMidYMid meet">
<metadata>
Created by potrace 1.14, written by Peter Selinger 2001-2017
</metadata>
<g transform="translate(0.000000,700.000000) scale(0.100000,-0.100000)"
fill="#000000" stroke="none">
<path d="M3210 6990 c-1088 -101 -2028 -658 -2625 -1555 -484 -727 -676 -1597
-545 -2466 170 -1121 886 -2100 1905 -2603 425 -210 821 -319 1300 -357 179
-14 494 -7 679 16 1332 161 2467 1087 2894 2360 128 382 177 689 177 1115 0
425 -48 730 -176 1112 -422 1270 -1555 2197 -2889 2363 -148 19 -584 27 -720
15z m735 -429 c671 -102 1266 -401 1740 -876 476 -476 771 -1062 877 -1745 19
-126 22 -184 22 -440 0 -256 -3 -314 -22 -440 -106 -683 -401 -1270 -877
-1745 -476 -477 -1067 -773 -1745 -876 -137 -21 -190 -24 -445 -23 -250 0
-310 3 -435 23 -260 40 -454 92 -685 182 -941 367 -1638 1165 -1879 2147 -64
260 -81 411 -81 732 0 249 3 305 24 440 125 831 549 1541 1218 2042 403 301
903 507 1398 577 214 30 205 29 490 26 203 -2 291 -8 400 -24z"/>
<path d="M1240 4450 l0 -421 48 3 c46 3 47 3 52 41 l5 39 25 -27 c80 -88 231
-85 317 6 60 63 78 120 78 244 0 95 -3 117 -24 163 -67 149 -249 197 -362 95
l-38 -35 -3 154 -3 153 -47 3 -48 3 0 -421z m365 68 c35 -35 45 -54 55 -103
14 -67 8 -157 -14 -210 -46 -108 -180 -136 -253 -52 -41 46 -57 111 -51 204 8
138 61 203 167 203 50 0 57 -3 96 -42z"/>
<path d="M5400 4450 l0 -421 48 3 c46 3 47 3 52 41 l5 39 25 -27 c88 -96 259
-81 337 28 50 69 66 133 61 240 -5 112 -32 179 -92 235 -85 78 -216 79 -296 3
l-40 -37 -2 155 -3 156 -47 3 -48 3 0 -421z m346 90 c70 -44 103 -188 70 -305
-21 -69 -57 -109 -114 -125 -126 -33 -211 75 -200 254 6 85 35 148 81 176 43
27 119 26 163 0z"/>
<path d="M2085 4644 c-11 -2 -48 -12 -82 -20 l-63 -16 0 -44 c0 -24 1 -44 3
-44 1 0 28 9 60 20 71 25 175 27 224 3 40 -19 73 -66 73 -104 l0 -27 -127 -4
c-156 -4 -208 -23 -248 -92 -29 -50 -35 -149 -11 -194 60 -115 246 -138 347
-43 l38 37 3 -41 3 -40 45 0 45 0 3 199 c3 225 -7 281 -58 340 -17 19 -49 41
-72 50 -42 17 -147 29 -183 20z m215 -352 c0 -52 -44 -137 -83 -160 -103 -62
-217 -18 -217 84 0 60 8 74 54 95 31 14 65 19 144 19 l102 0 0 -38z"/>
<path d="M2699 4637 c-96 -27 -148 -99 -136 -189 11 -82 53 -114 202 -153 110
-28 145 -52 145 -97 0 -56 -27 -79 -112 -93 -42 -7 -162 16 -208 40 l-31 16 3
-53 3 -52 45 -14 c25 -8 91 -15 150 -16 92 -1 111 2 153 23 66 32 97 80 97
151 0 102 -44 141 -203 181 -114 28 -147 49 -147 92 0 23 8 41 26 58 36 34
154 40 237 11 l57 -19 0 47 0 48 -47 12 c-73 18 -182 22 -234 7z"/>
<path d="M3347 4640 c-136 -34 -207 -128 -215 -281 -6 -111 13 -180 67 -241
62 -70 124 -93 246 -92 72 0 116 6 155 20 l55 19 3 46 3 47 -66 -24 c-88 -32
-200 -33 -262 -3 -48 23 -87 79 -98 142 l-7 37 226 0 226 0 0 53 c0 114 -54
213 -142 258 -45 23 -138 32 -191 19z m153 -99 c37 -20 80 -88 80 -128 l0 -23
-170 0 c-161 0 -170 1 -170 19 0 52 43 114 95 137 44 19 124 17 165 -5z"/>
<path d="M4898 4636 c-142 -38 -218 -164 -205 -339 15 -221 207 -325 465 -252
l62 18 0 48 0 48 -47 -21 c-52 -22 -177 -35 -238 -24 -20 4 -53 23 -75 42 -36
33 -49 58 -64 127 l-6 27 226 0 227 0 -5 78 c-8 135 -77 227 -189 251 -62 14
-91 13 -151 -3z m169 -96 c36 -21 73 -85 73 -125 l0 -25 -170 0 c-164 0 -170
1 -170 20 0 49 57 123 110 143 37 14 126 6 157 -13z"/>
<path d="M3795 4583 c7 -26 41 -154 75 -283 33 -129 63 -243 66 -253 5 -15 15
-17 62 -15 l57 3 60 225 c33 124 63 231 66 239 3 8 31 -87 63 -210 33 -123 63
-232 68 -241 6 -14 21 -18 59 -18 42 0 51 3 59 23 9 21 150 556 150 570 0 4
-22 7 -49 7 l-48 0 -58 -225 c-32 -124 -60 -223 -62 -221 -2 2 -30 102 -61
222 l-58 219 -60 3 -60 3 -59 -226 c-32 -124 -60 -223 -62 -221 -2 2 -30 102
-61 222 l-57 219 -52 3 -52 3 14 -48z"/>
<path d="M5695 3800 c-339 -61 -525 -300 -525 -676 0 -215 60 -377 184 -499
127 -125 269 -176 491 -176 211 0 355 48 478 161 125 115 186 263 194 475 15
370 -143 614 -453 700 -69 19 -296 28 -369 15z m291 -267 c127 -67 193 -229
181 -447 -10 -187 -68 -303 -182 -361 -51 -26 -69 -30 -139 -30 -132 0 -213
50 -272 168 -68 134 -71 373 -6 520 35 79 105 143 182 168 48 16 191 4 236
-18z"/>
<path d="M720 3130 l0 -660 249 0 c258 0 410 10 521 36 217 50 389 219 445
439 35 136 14 380 -43 492 -34 67 -110 159 -165 201 -153 119 -322 151 -799
152 l-208 0 0 -660z m642 371 c112 -39 190 -116 221 -215 16 -53 16 -259 0
-312 -18 -57 -70 -132 -116 -165 -74 -54 -140 -72 -279 -77 l-128 -4 0 402 0
403 123 -6 c85 -4 140 -12 179 -26z"/>
<path d="M2217 3783 c-4 -3 -7 -300 -7 -660 l0 -653 470 0 470 0 0 130 0 130
-300 0 -301 0 3 148 3 147 273 3 273 2 -3 128 -3 127 -272 3 -273 2 0 120 0
120 290 0 290 0 0 130 0 130 -453 0 c-250 0 -457 -3 -460 -7z"/>
<path d="M3450 3130 l0 -660 160 0 160 0 0 478 1 477 150 -352 151 -353 107 0
108 0 149 351 149 351 3 -476 2 -476 160 0 160 0 0 660 0 660 -216 -2 -215 -3
-139 -325 c-77 -179 -145 -336 -151 -350 -10 -23 -25 8 -161 328 l-150 352
-214 0 -214 0 0 -660z"/>
</g>
</svg>
